<svg xmlns="http://www.w3.org/2000/svg" width="50" height="50" viewBox="0 0 50 50">
    <defs>
        <clipPath id="clip-path">
            <path id="Rectangle_57" fill="#fff" stroke="#707070" d="M0 0H50V50H0z" transform="translate(1163 5216)"/>
        </clipPath>
        <style>
            .cls-3{fill:none;stroke:#344154;stroke-linecap:round;stroke-linejoin:round}.cls-4{fill:#35b4cf}
        </style>
    </defs>
    <g id="Mask_Group_26" clip-path="url(#clip-path)" transform="translate(-1163 -5216)">
        <g id="Group_59" transform="translate(144.022 3626.423)">
            <path id="Path_181" d="M1039.594 1604.048a13.471 13.471 0 0 1 26.941 0" class="cls-3" transform="translate(-9.282)"/>
            <path id="Path_182" d="M1093.077 1635.136h1.849a3.019 3.019 0 0 0 3.019-3.019v-1.832a3.019 3.019 0 0 0-3.019-3.019h-1.849v9.282a7.083 7.083 0 0 1-7.083 7.083h-1.411" class="cls-3" transform="translate(-37.853 -23.3)"/>
            <path id="Path_183" d="M1036.68 1635.136h-1.849a3.019 3.019 0 0 1-3.019-3.019v-1.832a3.019 3.019 0 0 1 3.019-3.019h1.849z" class="cls-3" transform="translate(-4.339 -23.3)"/>
            <rect id="Rectangle_56" width="4.008" height="2.497" class="cls-3" rx="1.248" transform="translate(1044.044 1617.834)"/>
            <path id="Path_184" d="M1097.706 1692.283h11.1l-1.468-9.649a7.243 7.243 0 0 0-2.483-4.151 5.916 5.916 0 0 0-2.433-1.277l-3.9-1.025" class="cls-3" transform="translate(-46.187 -54.364)"/>
            <path id="Path_185" d="M1034.916 1674.674h-9.937l1.468-9.408a7.223 7.223 0 0 1 2.484-4.151 5.924 5.924 0 0 1 2.453-1.284l6.255-1.816a1.365 1.365 0 0 0 .976-1.155l.287-2.483a9.819 9.819 0 0 1-2.044-2.19 11.27 11.27 0 0 1-1.1-2.078l-.531-1.277" class="cls-3" transform="translate(0 -36.997)"/>
            <path id="Path_186" d="M1061.613 1610.33s-1.512 5.24-10.286 4.268a7.651 7.651 0 0 1-.045-3.306 10.954 10.954 0 0 1 2.351-4.834 9.228 9.228 0 0 1 7.014-3.415 9.452 9.452 0 0 1 7.721 4.335 11.583 11.583 0 0 1 .882 1.555l.719 1.488" class="cls-3" transform="translate(-16.604 -7.916)"/>
            <path id="Line_82" d="M0 9.518L0 0" class="cls-3" transform="translate(1043.782 1628.401)"/>
            <path id="Line_83" d="M0 3.649L3.649 0" class="cls-3" transform="translate(1043.782 1624.752)"/>
            <path id="Line_84" d="M3.649 3.649L0 0" class="cls-3" transform="translate(1040.133 1624.752)"/>
            <path id="Path_187" d="M1078.666 1617.8s.649 5.953 8.2 5.746" class="cls-3" transform="translate(-34.096 -17.291)"/>
            <path id="Path_188" d="M1109.505 1688.225a5.05 5.05 0 0 0-1.721-2.848 3.711 3.711 0 0 0-1.508-.826l-.043-.01-.043-.011-.575-.151a14.038 14.038 0 0 1 1.74 6.444 4.013 4.013 0 0 1-.34 1.958 4.665 4.665 0 0 1-1.075 1.228l-1.431 1.292h6.073z" class="cls-4" transform="translate(-50.507 -59.571)"/>
            <path id="Path_189" d="M1034.21 1688.225a5.053 5.053 0 0 1 1.721-2.848 3.709 3.709 0 0 1 1.509-.826l.043-.01.043-.011.575-.151a14.046 14.046 0 0 0-1.74 6.444 4.013 4.013 0 0 0 .34 1.958 4.668 4.668 0 0 0 1.075 1.228l1.43 1.292h-6.073z" class="cls-4" transform="translate(-5.179 -59.571)"/>
        </g>
    </g>
</svg>
