<svg xmlns="http://www.w3.org/2000/svg" width="40" height="40" viewBox="0 0 40 40">
    <defs>
        <clipPath id="clip-path">
            <path id="Rectangle_49" fill="#fff" stroke="#707070" d="M0 0H40V40H0z" transform="translate(167 4693)"/>
        </clipPath>
        <style>
            .cls-3{fill:none;stroke:#344154;stroke-linecap:round;stroke-linejoin:round;stroke-width:.7px}
        </style>
    </defs>
    <g id="Mask_Group_23" clip-path="url(#clip-path)" transform="translate(-167 -4693)">
        <g id="Group_53" transform="translate(-2379.756 3125.172)">
            <g id="Group_50" transform="translate(2571.909 1571.697)">
                <path id="Path_148" d="M2666.843 1593.969a11.231 11.231 0 0 1 .185 1.738 2.208 2.208 0 0 1-.5 1.4 1.346 1.346 0 0 0-.282 1.006l.02.166a.442.442 0 0 0 .314.372l2.022.587a1.911 1.911 0 0 1 .784.411 2.334 2.334 0 0 1 .8 1.337l.2 1.5" class="cls-3" transform="translate(-2658.804 -1589.982)"/>
                <path id="Path_149" d="M2660.215 1579.348a3.212 3.212 0 0 1 2.912 1.761 5.255 5.255 0 0 1 .368 1.549 5.717 5.717 0 0 0 .482 2.129 1.61 1.61 0 0 0 1.292.912 2.385 2.385 0 0 1-2.454 1.036" class="cls-3" transform="translate(-2654.427 -1579.348)"/>
                <path id="Path_150" d="M2646.735 1579.348a3.212 3.212 0 0 0-2.911 1.761 5.263 5.263 0 0 0-.368 1.549 5.726 5.726 0 0 1-.482 2.129 1.611 1.611 0 0 1-1.293.912 2.386 2.386 0 0 0 2.454 1.036" class="cls-3" transform="translate(-2640.947 -1579.348)"/>
                <path id="Path_151" d="M2653.389 1610.912l1.862 1.39 1.862-1.39" class="cls-3" transform="translate(-2649.462 -1602.304)"/>
                <path id="Path_152" d="M2638.99 1597.867l.2-1.5a2.337 2.337 0 0 1 .8-1.337 1.907 1.907 0 0 1 .784-.411l2.021-.587a.434.434 0 0 0 .124-.058.439.439 0 0 0 .191-.314l.02-.166a1.346 1.346 0 0 0-.282-1.006 2.206 2.206 0 0 1-.5-1.4 12.668 12.668 0 0 1 .24-2.053 1.8 1.8 0 0 1 1.043-1.323 1.079 1.079 0 0 1 1.27.292l.006.008c.214.265.374.573.61.818a1.749 1.749 0 0 0 1.517.5" class="cls-3" transform="translate(-2638.99 -1585.362)"/>
            </g>
            <g id="Group_52" transform="translate(2546.756 1569.562)">
                <g id="Group_51" transform="translate(3.233 8.028)">
                    <path id="Path_153" d="M2611.1 1600.958a1.717 1.717 0 0 1 1.062 1.767c0 .965-.528 1.73-1.216 1.791a6.572 6.572 0 0 1-2.259 3.551l.178 1.524a.839.839 0 0 0 .6.708l3.852 1.118a3.634 3.634 0 0 1 1.493.784 4.446 4.446 0 0 1 1.523 2.548v2.541" class="cls-3" transform="translate(-2595.029 -1600.958)"/>
                    <path id="Path_154" d="M2563.811 1600.994a1.732 1.732 0 0 0-1.028 1.757c0 .964.525 1.728 1.212 1.791a6.6 6.6 0 0 0 2.26 3.551l-.176 1.524a.838.838 0 0 1-.6.709l-3.839 1.114a3.639 3.639 0 0 0-1.506.788 4.431 4.431 0 0 0-1.525 2.548v2.541" class="cls-3" transform="translate(-2558.611 -1600.984)"/>
                </g>
                <path id="Path_155" d="M2578.313 1588.832a6.315 6.315 0 0 0-.663 3.317" class="cls-3" transform="translate(-2569.217 -1584.111)"/>
                <path id="Path_156" d="M2616.608 1594.062a8.588 8.588 0 0 0-.348-2.586" class="cls-3" transform="translate(-2597.305 -1586.033)"/>
                <path id="Path_157" d="M2592.43 1631.306l-3.142 2.813-3.142-2.813" class="cls-3" transform="translate(-2575.404 -1615.001)"/>
                <path id="Path_158" d="M2580.109 1576.24a4.267 4.267 0 0 1 3.958-4.042 13.923 13.923 0 0 0 3.1-.68l.009.015a.819.819 0 0 1 .064.745 4.474 4.474 0 0 0 3.076-.245 8.6 8.6 0 0 1-.251 2.753 2.481 2.481 0 0 1-1.474 1.408 3.169 3.169 0 0 1-1.34.052c-.9-.119-1.772-.387-2.663-.559a5.6 5.6 0 0 0-2.694.022" class="cls-3" transform="translate(-2571.013 -1571.519)"/>
                <path id="Path_159" d="M2576.661 1703.133h-25.2a2.232 2.232 0 0 1 2.233-2.233h20.735a2.232 2.232 0 0 1 2.233 2.233z" class="cls-3" transform="translate(-2550.177 -1665.616)"/>
                <path id="Path_160" d="M2571.8 1671.77l2.662-8.956a1.53 1.53 0 0 0-1.467-1.967h-24.7a1.531 1.531 0 0 0-1.467 1.967l2.663 8.956" class="cls-3" transform="translate(-2546.755 -1636.487)"/>
                <path id="Path_161" fill="#35b4cf" d="M2552.891 1666.848l2.059 6.927a6.868 6.868 0 0 0 .712-.709 12.873 12.873 0 0 1 1.825-2.08c1.551-1.166 3.7-.839 5.64-.878a13.545 13.545 0 0 0 8.389-3.26h-18.625z" transform="translate(-2551.218 -1640.85)"/>
            </g>
            <circle id="Ellipse_3" cx="8.772" cy="8.772" r="8.772" class="cls-3" transform="translate(2568.925 1568.828)"/>
        </g>
    </g>
</svg>
